<?xml version="1.0" encoding="UTF-8"?>
<svg width="452px" height="508px" viewBox="0 0 452 508" version="1.1" xmlns="http://www.w3.org/2000/svg" xmlns:xlink="http://www.w3.org/1999/xlink">
    <!-- Generator: Sketch 46.2 (44496) - http://www.bohemiancoding.com/sketch -->
    <title>iS a Copy</title>
    <desc>Created with Sketch.</desc>
    <defs></defs>
    <g id="Welcome" stroke="none" stroke-width="1" fill="none" fill-rule="evenodd" opacity="0.334012681">
        <path d="M81.9142944,53 L108.914294,53 L108.914294,5 L0.914294434,5 L0.914294434,53 L27.9142944,53 L27.9142944,170 L0.914294434,170 L0.914294434,218 L108.914294,218 L108.914294,170 L81.9142944,170 L81.9142944,53 Z M366.7,88.4 C346.9,86.6 333.4,83.3 333.4,70.1 L333.4,49.4 L391.9,49.4 L391.9,70.1 L443.2,70.1 C444.1,23.9 403.3,0.2 362.5,0.2 C318.4,0.2 279.1,23.9 279.1,70.1 C279.1,115.1 318.4,129.5 357.1,132.2 C372.7,133.4 395.8,134.6 395.8,153.2 L395.8,174.5 L330.7,174.5 L330.7,153.2 L277,153.2 C276.1,200 319.3,222.8 364.3,222.8 C407.2,222.8 451.3,200 451.3,155 C451.3,104 411.4,92.6 366.7,88.4 Z M144.507147,295 L306.207147,295 L306.207147,508 L252.207147,508 L252.207147,460.9 L198.507147,460.9 L198.507147,508 L144.507147,508 L144.507147,295 Z M252.207147,414.4 L252.207147,343 L198.507147,343 L198.507147,414.4 L252.207147,414.4 Z" id="iS-a-Copy" fill="#8DFFE6"></path>
    </g>
</svg>